<?xml version="1.0" encoding="UTF-8"?>
<!DOCTYPE svg PUBLIC "-//W3C//DTD SVG 1.1//EN" "http://www.w3.org/Graphics/SVG/1.1/DTD/svg11.dtd">
<!-- Creator: CorelDRAW 2018 (64-Bit) -->
<svg xmlns="http://www.w3.org/2000/svg" xml:space="preserve" width="115px" height="20px" version="1.1" style="shape-rendering:geometricPrecision; text-rendering:geometricPrecision; image-rendering:optimizeQuality; fill-rule:evenodd; clip-rule:evenodd"
viewBox="0 0 33.98 5.92"
 xmlns:xlink="http://www.w3.org/1999/xlink">
 <defs>
  <style type="text/css">
   <![CDATA[
    .fil0 {fill:white;fill-rule:nonzero}
   ]]>
  </style>
 </defs>
 <g id="Warstwa_x0020_1">
  <metadata id="CorelCorpID_0Corel-Layer"/>
  <path class="fil0" d="M1.89 2.47l-0.11 0c-0.01,0 -0.01,0 -0.02,-0.01l-0.6 -1.44c-0.09,-0.19 -0.17,-0.41 -0.25,-0.64 -0.01,0 -0.01,-0.01 -0.02,-0.01l0 0c0.02,0.34 0.02,0.65 0.02,0.93l0 1.15c0,0.02 0,0.02 -0.01,0.02l-0.26 0c-0.01,0 -0.02,0 -0.02,-0.02l0 -2.39c0,-0.01 0.01,-0.01 0.02,-0.01l0.39 0c0.01,0 0.02,0 0.02,0.01l0.57 1.36c0.06,0.16 0.13,0.35 0.21,0.57l0.01 0c0.09,-0.25 0.16,-0.44 0.22,-0.57l0.56 -1.36c0.01,-0.01 0.01,-0.01 0.02,-0.01l0.4 0c0.01,0 0.02,0 0.02,0.01l0 2.39c0,0.02 -0.01,0.02 -0.02,0.02l-0.26 0c-0.01,0 -0.02,0 -0.02,-0.02l0 -1.15c0,-0.28 0.01,-0.58 0.03,-0.93l-0.01 0c0,0 -0.01,0.01 -0.01,0.01 -0.09,0.25 -0.18,0.46 -0.25,0.64l-0.61 1.44c0,0.01 -0.01,0.01 -0.02,0.01zm30.33 2.77l0.34 0 0.2 0 0.2 0 -0.91 -2.3c-0.24,-0.6 -0.48,-1.26 -0.73,-1.97 0,-0.01 -0.01,-0.01 -0.02,-0.01l0 0c-0.26,0.73 -0.51,1.38 -0.75,1.98l-1.16 2.93c0,0.01 -0.01,0.01 -0.02,0.01l-0.46 0c-0.07,0 -0.12,-0.03 -0.16,-0.08 -0.04,-0.06 -0.04,-0.12 -0.02,-0.18l2.26 -5.56c0.01,0 0.01,-0.01 0.02,-0.01l0.59 0c0.01,0 0.01,0.01 0.02,0.01l2.36 5.8c0,0 0,0.01 0,0.02 -0.01,0 -0.01,0 -0.02,0l-0.01 0 -0.72 0 0 0 -0.47 0 -0.2 0 -0.34 0 -2.07 0 0.26 -0.64 1.81 0zm-14.69 -2.3c0,-0.56 -0.12,-1.01 -0.37,-1.36 -0.24,-0.35 -0.59,-0.6 -1.05,-0.74 -0.17,-0.06 -0.37,-0.1 -0.58,-0.12 -0.22,-0.02 -0.46,-0.03 -0.73,-0.03l-0.52 0c-0.01,0 -0.02,0.01 -0.02,0.02l0 4.51c0,0.01 0.01,0.02 0.02,0.02l0.52 0c0.27,0 0.51,-0.01 0.73,-0.03 0.21,-0.02 0.41,-0.05 0.58,-0.11 0.46,-0.15 0.81,-0.4 1.05,-0.76 0.25,-0.37 0.37,-0.83 0.37,-1.4zm0.75 0c0,0.34 -0.04,0.66 -0.13,0.96 -0.08,0.3 -0.21,0.57 -0.38,0.81 -0.17,0.24 -0.38,0.45 -0.64,0.62 -0.25,0.17 -0.55,0.31 -0.89,0.41 -0.19,0.05 -0.4,0.09 -0.63,0.11 -0.23,0.02 -0.47,0.03 -0.74,0.03l-1.13 0c-0.1,0 -0.19,-0.08 -0.19,-0.19l0 -5.62c0,-0.01 0.01,-0.02 0.02,-0.02l1.32 0c0.26,0 0.51,0.01 0.73,0.03 0.23,0.03 0.44,0.07 0.63,0.12 0.34,0.1 0.64,0.23 0.9,0.4 0.25,0.17 0.46,0.38 0.63,0.61 0.17,0.23 0.29,0.5 0.37,0.79 0.09,0.29 0.13,0.6 0.13,0.94zm3.35 -1.98c-0.26,0.73 -0.51,1.38 -0.75,1.98l-1.16 2.93c0,0.01 -0.01,0.01 -0.02,0.01l-0.46 0c-0.07,0 -0.12,-0.03 -0.16,-0.08 -0.04,-0.06 -0.04,-0.12 -0.02,-0.18l2.26 -5.56c0.01,0 0.01,-0.01 0.02,-0.01l0.59 0c0.01,0 0.01,0.01 0.02,0.01l2.36 5.8c0,0 0,0.01 0,0.02 -0.01,0 -0.01,0 -0.02,0l-0.01 0 -0.72 0 0 0 -0.47 0 -0.2 0 -0.34 0 -2.07 0 0.26 -0.64 1.81 0 0.34 0 0.2 0 0.2 0 -0.91 -2.3c-0.24,-0.6 -0.48,-1.26 -0.73,-1.97 0,-0.01 -0.01,-0.01 -0.02,-0.01l0 0zm5.18 4.92l-0.5 0c-0.11,0 -0.19,-0.08 -0.19,-0.19l0 -4.98c0,-0.01 -0.01,-0.02 -0.02,-0.02l-1.91 0c-0.01,0 -0.02,-0.01 -0.02,-0.02l0 -0.6c0,-0.01 0.01,-0.02 0.02,-0.02l4.57 0c0.01,0 0.02,0.01 0.02,0.02l0 0.6c0,0.01 -0.01,0.02 -0.02,0.02l-1.91 0c-0.02,0 -0.02,0.01 -0.02,0.02l0 5.16c0,0.01 -0.01,0.01 -0.02,0.01zm-21.48 -4.62c0,-0.16 -0.02,-0.31 -0.07,-0.43 -0.04,-0.12 -0.1,-0.23 -0.17,-0.31 -0.08,-0.09 -0.16,-0.15 -0.27,-0.19 -0.1,-0.05 -0.2,-0.07 -0.32,-0.07 -0.12,0 -0.23,0.02 -0.33,0.07 -0.1,0.04 -0.19,0.1 -0.26,0.19 -0.07,0.08 -0.13,0.19 -0.18,0.31 -0.04,0.12 -0.06,0.27 -0.06,0.43 0,0.16 0.02,0.31 0.07,0.43 0.04,0.13 0.1,0.23 0.17,0.31 0.08,0.09 0.16,0.15 0.26,0.19 0.11,0.04 0.22,0.07 0.33,0.07 0.12,0 0.23,-0.03 0.33,-0.07 0.1,-0.04 0.18,-0.1 0.26,-0.19 0.07,-0.08 0.13,-0.18 0.17,-0.31 0.05,-0.12 0.07,-0.27 0.07,-0.43zm0.31 0c0,0.19 -0.03,0.35 -0.08,0.51 -0.05,0.15 -0.13,0.28 -0.23,0.4 -0.1,0.11 -0.22,0.19 -0.36,0.26 -0.14,0.06 -0.29,0.09 -0.47,0.09 -0.18,0 -0.34,-0.03 -0.48,-0.09 -0.14,-0.07 -0.26,-0.15 -0.36,-0.26 -0.1,-0.12 -0.17,-0.25 -0.22,-0.4 -0.05,-0.16 -0.08,-0.32 -0.08,-0.51 0,-0.18 0.03,-0.35 0.08,-0.51 0.05,-0.15 0.13,-0.28 0.23,-0.4 0.1,-0.11 0.22,-0.19 0.36,-0.26 0.14,-0.06 0.29,-0.09 0.47,-0.09 0.18,0 0.34,0.03 0.48,0.09 0.14,0.07 0.26,0.15 0.36,0.26 0.09,0.12 0.17,0.25 0.22,0.4 0.05,0.16 0.08,0.33 0.08,0.51zm1.5 -0.04c0.08,0.01 0.14,0.03 0.2,0.06 0.06,0.03 0.11,0.06 0.16,0.11 0.04,0.04 0.07,0.1 0.1,0.16 0.02,0.06 0.03,0.13 0.03,0.21 0,0.06 -0.01,0.12 -0.03,0.18 -0.01,0.07 -0.04,0.13 -0.08,0.18 -0.04,0.06 -0.09,0.12 -0.15,0.17 -0.07,0.05 -0.15,0.09 -0.24,0.12 -0.07,0.02 -0.15,0.04 -0.24,0.05 -0.09,0.01 -0.2,0.01 -0.32,0.01l-0.61 0c-0.01,0 -0.02,0 -0.02,-0.02l0 -2.39c0,-0.01 0.01,-0.01 0.02,-0.01l0.59 0c0.05,0 0.1,0 0.15,0 0.04,0 0.09,0 0.12,0.01 0.04,0 0.08,0 0.11,0.01 0.03,0 0.06,0.01 0.09,0.02 0.08,0.02 0.15,0.05 0.21,0.08 0.06,0.04 0.12,0.08 0.16,0.13 0.04,0.05 0.08,0.11 0.1,0.17 0.03,0.06 0.04,0.13 0.04,0.21 0,0.05 -0.01,0.11 -0.02,0.17 -0.02,0.05 -0.04,0.1 -0.07,0.15 -0.03,0.04 -0.07,0.08 -0.12,0.12 -0.05,0.04 -0.11,0.07 -0.18,0.09l0 0.01zm-0.45 -0.12c0.06,0 0.11,-0.01 0.15,-0.01 0.04,-0.01 0.08,-0.02 0.11,-0.03 0.09,-0.03 0.16,-0.07 0.2,-0.14 0.04,-0.06 0.06,-0.14 0.06,-0.22 0,-0.09 -0.02,-0.17 -0.06,-0.22 -0.04,-0.06 -0.11,-0.1 -0.21,-0.13 -0.04,-0.01 -0.1,-0.02 -0.16,-0.03 -0.06,-0.01 -0.13,-0.01 -0.21,-0.01l-0.31 0c-0.01,0 -0.02,0.01 -0.02,0.02l0 0.75c0,0.01 0.01,0.02 0.02,0.02l0.43 0zm-0.45 0.28l0 0.81c0,0.01 0.01,0.02 0.02,0.02l0.34 0c0.08,0 0.16,-0.01 0.23,-0.01 0.07,-0.01 0.14,-0.02 0.19,-0.04 0.05,-0.02 0.1,-0.04 0.14,-0.07 0.04,-0.03 0.07,-0.06 0.09,-0.1 0.03,-0.03 0.04,-0.07 0.05,-0.11 0.01,-0.04 0.02,-0.07 0.02,-0.11 0,-0.05 -0.01,-0.09 -0.02,-0.13 -0.01,-0.04 -0.03,-0.08 -0.05,-0.11 -0.03,-0.04 -0.06,-0.06 -0.1,-0.09 -0.04,-0.02 -0.09,-0.04 -0.15,-0.05 -0.04,-0.01 -0.08,-0.02 -0.13,-0.02 -0.04,-0.01 -0.1,-0.01 -0.17,-0.01l-0.44 0c-0.01,0 -0.02,0.01 -0.02,0.02zm1.68 1.07l0 -2.39c0,0 0.01,-0.01 0.01,-0.01 0,0 0.01,0 0.01,0l0.26 0c0.01,0 0.02,0 0.02,0.01l0 2.39c0,0.02 -0.01,0.02 -0.02,0.02l-0.26 0c-0.01,0 -0.02,0 -0.02,-0.02zm0.99 -2.39l0 2.13c0,0.01 0.01,0.02 0.02,0.02l1.15 0c0.01,0 0.02,0.01 0.02,0.02l0 0.22c0,0.02 -0.01,0.02 -0.02,0.02l-1.45 0c-0.01,0 -0.02,0 -0.02,-0.02l0 -2.39c0,-0.01 0.01,-0.01 0.02,-0.01l0.26 0c0.01,0 0.02,0 0.02,0.01zm1.73 2.15l1.21 0c0.01,0 0.02,0.01 0.02,0.02l0 0.22c0,0.02 -0.01,0.02 -0.02,0.02l-1.5 0c-0.02,0 -0.02,0 -0.02,-0.02l0 -2.39c0,-0.01 0,-0.01 0.02,-0.01l1.43 0c0.01,0 0.02,0 0.02,0.01l0 0.23c0,0.01 -0.01,0.02 -0.02,0.02l-1.14 0c-0.01,0 -0.02,0.01 -0.02,0.02l0 0.75c0,0.01 0.01,0.02 0.02,0.02l1.01 0c0.01,0 0.02,0 0.02,0.02l0 0.22c0,0.01 -0.01,0.02 -0.02,0.02l-1.01 0c-0.01,0 -0.02,0.01 -0.02,0.02l0 0.81c0,0.01 0.01,0.02 0.02,0.02zm-9.55 3.67l-0.26 0c-0.01,0 -0.02,-0.01 -0.02,-0.02l0 -2.13c0,-0.01 -0.01,-0.01 -0.02,-0.01l-0.77 0c-0.01,0 -0.02,-0.01 -0.02,-0.02l0 -0.23c0,-0.01 0.01,-0.02 0.02,-0.02l1.88 0c0.01,0 0.02,0.01 0.02,0.02l0 0.23c0,0.01 -0.01,0.02 -0.02,0.02l-0.77 0c-0.01,0 -0.02,0 -0.02,0.01l0 2.13c0,0.01 -0.01,0.02 -0.02,0.02zm1.28 -0.99l0 0.97c0,0.01 -0.01,0.02 -0.02,0.02l-0.25 0c-0.01,0 -0.02,-0.01 -0.02,-0.02l0 -2.39c0,-0.01 0.01,-0.02 0.02,-0.02l0.61 0c0.1,0 0.19,0 0.27,0.01 0.07,0.01 0.14,0.02 0.2,0.04 0.17,0.04 0.3,0.12 0.39,0.23 0.09,0.11 0.13,0.25 0.13,0.42 0,0.1 -0.01,0.18 -0.04,0.26 -0.03,0.08 -0.08,0.14 -0.14,0.2 -0.05,0.06 -0.12,0.11 -0.2,0.14 -0.08,0.04 -0.17,0.06 -0.26,0.08l0 0c0,0.01 0,0.01 0,0.01l0.77 1.01c0,0 0,0.01 0,0.02 -0.01,0 -0.01,0.01 -0.02,0.01l-0.32 0c-0.01,0 -0.01,-0.01 -0.02,-0.01l-0.73 -0.99c-0.01,-0.01 -0.01,-0.01 -0.02,-0.01l-0.33 0c-0.01,0 -0.02,0.01 -0.02,0.02zm0 -1.16l0 0.86c0,0.01 0.01,0.01 0.02,0.01l0.27 0c0.1,0 0.17,0 0.24,0 0.06,-0.01 0.12,-0.02 0.17,-0.04 0.1,-0.03 0.18,-0.08 0.24,-0.15 0.05,-0.07 0.08,-0.16 0.08,-0.27 0,-0.1 -0.03,-0.19 -0.08,-0.25 -0.05,-0.06 -0.12,-0.11 -0.21,-0.14 -0.05,-0.01 -0.1,-0.02 -0.16,-0.03 -0.06,0 -0.14,0 -0.23,0l-0.32 0c-0.01,0 -0.02,0 -0.02,0.01zm1.45 2.12l0.97 -2.39c0.01,-0.01 0.01,-0.01 0.02,-0.01l0.23 0c0.01,0 0.02,0 0.02,0.01l0.97 2.39c0,0.01 0,0.01 0,0.02 0,0 -0.01,0.01 -0.02,0.01l-0.28 0c0,0 -0.01,-0.01 -0.01,-0.02l-0.28 -0.7c-0.01,-0.01 -0.01,-0.01 -0.02,-0.01l-0.99 0c-0.01,0 -0.02,0 -0.02,0.01l-0.28 0.7c0,0.01 -0.01,0.02 -0.02,0.02l-0.27 0c-0.01,0 -0.02,-0.01 -0.02,-0.01 0,-0.01 0,-0.01 0,-0.02zm1.1 -2.02c-0.1,0.3 -0.21,0.57 -0.31,0.82l-0.08 0.2c0,0.01 0,0.02 0,0.02 0.01,0.01 0.01,0.01 0.02,0.01l0.75 0c0,0 0.01,0 0.01,-0.01 0.01,-0.01 0.01,-0.01 0.01,-0.02l-0.09 -0.2c-0.09,-0.25 -0.2,-0.53 -0.3,-0.82l-0.01 0zm1.55 2.05l-0.26 0c-0.01,0 -0.02,-0.01 -0.02,-0.02l0 -2.39c0,-0.01 0.01,-0.02 0.02,-0.02l1.41 0c0.01,0 0.02,0.01 0.02,0.02l0 0.23c0,0.01 -0.01,0.02 -0.02,0.02l-1.11 0c-0.01,0 -0.02,0 -0.02,0.01l0 0.75c0,0.01 0.01,0.02 0.02,0.02l0.98 0c0.01,0 0.02,0.01 0.02,0.02l0 0.23c0,0.01 -0.01,0.02 -0.02,0.02l-0.98 0c-0.01,0 -0.02,0 -0.02,0.02l0 1.07c0,0.01 -0.01,0.02 -0.02,0.02zm1.65 0l-0.26 0c-0.01,0 -0.02,-0.01 -0.02,-0.02l0 -2.39c0,-0.01 0.01,-0.02 0.02,-0.02l1.41 0c0.01,0 0.02,0.01 0.02,0.02l0 0.23c0,0.01 -0.01,0.02 -0.02,0.02l-1.11 0c-0.01,0 -0.02,0 -0.02,0.01l0 0.75c0,0.01 0.01,0.02 0.02,0.02l0.98 0c0.01,0 0.02,0.01 0.02,0.02l0 0.23c0,0.01 -0.01,0.02 -0.02,0.02l-0.98 0c-0.01,0 -0.02,0 -0.02,0.02l0 1.07c0,0.01 -0.01,0.02 -0.02,0.02zm1.37 -0.02l0 -2.39c0,-0.01 0.01,-0.02 0.02,-0.02l0.26 0c0.01,0 0.02,0.01 0.02,0.02l0 2.39c0,0.01 -0.01,0.02 -0.02,0.02l-0.26 0c-0.01,0 -0.02,-0.01 -0.02,-0.02zm1.87 -2.19c-0.13,0 -0.26,0.02 -0.37,0.06 -0.12,0.04 -0.22,0.11 -0.31,0.19 -0.08,0.09 -0.15,0.19 -0.2,0.32 -0.05,0.13 -0.07,0.27 -0.07,0.44 0,0.17 0.02,0.31 0.07,0.44 0.04,0.12 0.11,0.22 0.19,0.3 0.09,0.08 0.19,0.14 0.31,0.18 0.12,0.04 0.25,0.06 0.4,0.06 0.04,0 0.08,0 0.12,-0.01 0.05,0 0.09,-0.01 0.14,-0.02 0.04,0 0.09,-0.01 0.13,-0.02 0.03,-0.01 0.06,-0.02 0.09,-0.03 0.01,0 0.01,0 0.02,0.01 0,0 0.01,0 0.01,0.01l0 0.22c0,0.01 -0.01,0.02 -0.02,0.02 -0.07,0.03 -0.14,0.05 -0.23,0.06 -0.1,0.02 -0.19,0.02 -0.29,0.02 -0.21,0 -0.38,-0.03 -0.54,-0.08 -0.16,-0.06 -0.29,-0.14 -0.39,-0.24 -0.11,-0.11 -0.19,-0.24 -0.24,-0.39 -0.06,-0.15 -0.09,-0.32 -0.09,-0.52 0,-0.19 0.03,-0.36 0.09,-0.52 0.06,-0.16 0.14,-0.29 0.25,-0.41 0.11,-0.11 0.24,-0.2 0.39,-0.26 0.16,-0.07 0.33,-0.1 0.52,-0.1 0.05,0 0.1,0 0.15,0.01 0.05,0 0.1,0.01 0.15,0.02 0.04,0.01 0.08,0.01 0.12,0.03 0.04,0 0.06,0.01 0.09,0.02 0.01,0.01 0.01,0.01 0.01,0.02l0 0.22c0,0.01 0,0.02 -0.01,0.02 0,0 -0.01,0.01 -0.01,0 -0.07,-0.02 -0.14,-0.03 -0.22,-0.05 -0.08,-0.02 -0.17,-0.02 -0.26,-0.02z"/>
 </g>
</svg>
